<?xml version="1.0" encoding="utf-8"?>
<!-- Generator: Adobe Illustrator 28.1.0, SVG Export Plug-In . SVG Version: 6.00 Build 0)  -->
<svg version="1.1" id="Layer_1" xmlns="http://www.w3.org/2000/svg" xmlns:xlink="http://www.w3.org/1999/xlink" x="0px" y="0px"
	 viewBox="0 0 24 24" style="enable-background:new 0 0 24 24;" xml:space="preserve">
<style type="text/css">
	.st0{fill-rule:evenodd;clip-rule:evenodd;fill:#003366;}
</style>
<path class="st0" d="M18.4,8.4c-0.8,0.2-2.1,0.5-2.8,0.9c-1.1,0.5-1.9,1.4-1.9,2.8c0,4.1,3.1,8,3.1,8.3c0,0.1-0.1,0.2-0.2,0.1
	c0,0,0,0,0,0c-0.7-0.7-2-2.7-2.6-3.7v0c-0.4-0.7-1-1.4-1.9-1.4h0c-1,0-1.5,0.8-1.9,1.4c-2.3,3.7-2.7,3.7-2.6,3.7
	c-0.1,0.1-0.2,0-0.2-0.1c0-0.3,3.1-4.3,3.1-8.3c0-1.3-0.7-2.1-1.7-2.7c-0.8-0.4-1.9-0.7-3-0.9c0,0,0,0,0,0c-0.1,0-0.1-0.3,0-0.3
	C6.7,8.4,9,9.1,12,9.1c2.9,0,5.3-0.7,6.4-0.9C18.5,8.2,18.5,8.4,18.4,8.4 M12,3.5c0.9,0,1.6,0.7,1.6,1.6S12.9,6.6,12,6.6
	c-0.9,0-1.6-0.7-1.6-1.6S11.1,3.5,12,3.5 M18.4,6.6c-0.4,0-2.1,0.6-4.5,0.8C14.6,6.9,15,6,15,5.1C15,3.4,13.7,2,12,2
	c-1.7,0-3,1.4-3,3.1c0,1,0.5,1.8,1.2,2.4c-2.4-0.2-4-0.8-4.5-0.8C4.7,6.6,4,7.4,4,8.3C4,9,4.5,9.7,5.3,9.9c1.8,0.5,3.6,0.8,3.6,2.2
	c0,3.1-2,6.1-2.9,7.5c0,0,0,0,0,0c-0.1,0.3-0.2,0.5-0.2,0.8c0,0.9,0.7,1.7,1.6,1.7c0.4,0,0.9-0.2,1.2-0.5c0.7-0.7,2.2-2.9,2.8-4
	c0.1-0.2,0.2-0.4,0.4-0.5c0.1-0.1,0.2-0.2,0.3-0.2c0.1,0,0.2,0.1,0.3,0.2c0.1,0.2,0.3,0.3,0.4,0.5c0.7,1.1,2.1,3.3,2.8,4
	c0.3,0.3,0.7,0.5,1.2,0.5c0.9,0,1.6-0.7,1.6-1.7c0-0.3-0.1-0.6-0.2-0.8c0,0,0,0,0,0c-0.8-1.4-2.8-4.3-2.8-7.4c0-1.5,2.1-1.8,3.6-2.2
	C19.5,9.7,20,9,20,8.3C20,7.4,19.3,6.6,18.4,6.6"/>
</svg>
